<svg width="64" height="64" viewBox="0 0 64 64" fill="none" xmlns="http://www.w3.org/2000/svg">
<rect width="64" height="64" rx="10" fill="white"/>
<g clip-path="url(#clip0_2_87622)">
<rect x="12" y="12" width="40" height="40" rx="20" fill="#FBDFB1"/>
<path d="M36.9352 38.0971C36.9352 38.0971 35.8826 39.6048 34.2017 41.1583C32.8042 42.4489 31.786 42.8736 31.8734 43.1525L31.6486 42.9998C31.3785 42.5831 28.9244 38.7906 28.841 38.7345C28.9821 37.4291 28.9504 34.769 28.9504 34.769C27.5236 35.2731 26.0427 35.3961 24.9396 34.515C21.1207 31.465 25.9309 23.6962 27.3445 21.5918C27.3545 21.6259 27.8421 23.257 28.4696 23.5708C29.1031 23.8873 30.1977 23.7723 30.8024 24.2042C31.4074 24.6362 31.4935 25.817 31.897 26.1628C32.3001 26.5086 33.9421 26.7966 34.1436 27.3147C34.3452 27.8332 33.9705 28.8125 34.5179 29.2737C35.0652 29.7344 35.6987 29.4175 35.9868 30.1664C36.2749 30.9152 35.3557 31.9378 35.9315 32.5713C36.5077 33.2047 36.9264 33.4163 36.8691 34.3852C36.8114 35.3544 35.9575 36.425 36.476 37.3181C36.6223 37.5702 36.7801 37.8306 36.9352 38.0971Z" fill="#CC927A" stroke="black" stroke-width="0.356161" stroke-linecap="round" stroke-linejoin="round"/>
<path d="M51.9847 43.8088C51.9539 44.1185 47.586 51.5219 47.3072 51.7386C47.1789 51.8384 44.0725 53.3358 40.7348 54.9293C39.5856 55.4778 38.4092 56.038 37.3174 56.5564C39.5155 53.2524 42.2217 48.9339 42.2217 48.6226C42.2217 48.1121 39.8481 47.2694 39.7716 46.989C39.6946 46.7081 42.4513 45.1002 42.3748 44.6919C42.3539 44.5817 42.1228 44.1029 41.7601 43.471C41.5137 43.0403 41.206 42.539 40.8634 42.0341C41.4953 42.067 42.269 42.5518 43.0427 42.5518C43.1625 42.5518 43.2984 42.5462 43.4434 42.5374C44.2379 42.4897 45.3094 42.3435 45.577 42.4653C45.894 42.6095 46.9598 43.7903 47.7663 43.3584C48.5725 42.9261 49.0333 42.6095 49.1198 42.3214C49.1363 42.2661 49.1255 42.1467 49.0986 41.9849C49.5177 42.0922 49.7682 42.1584 49.7854 42.1672C49.8327 42.1908 50.1708 42.3916 50.5679 42.6476C51.2086 43.0603 52.004 43.6176 51.9847 43.8088Z" fill="#F5D256" stroke="black" stroke-width="0.356161" stroke-linecap="round" stroke-linejoin="round"/>
<path d="M42.2216 48.6215C42.2216 48.8667 40.542 51.5989 38.7545 54.3628C38.2729 55.1073 37.7837 55.8542 37.3173 56.5553C36.5808 56.9051 35.8824 57.2357 35.2578 57.5306C34.4452 57.9149 33.756 58.2394 33.266 58.4682C33.0272 58.0399 32.8545 57.7077 32.8545 57.7077C32.8545 57.7077 35.9357 48.5077 37.2135 43.6859C37.526 42.5059 37.7308 41.5879 37.7556 41.1315C37.7721 40.829 37.7813 40.573 37.7841 40.3566C37.8053 40.2929 37.8205 40.2368 37.8294 40.1887C38.002 41.168 37.5413 42.2915 38.319 42.7234C38.8367 43.0107 39.507 42.5968 40.0844 42.2963C40.3749 42.1452 40.6417 42.0226 40.8537 42.0323C40.8569 42.0323 40.8601 42.0327 40.8633 42.0331C41.2059 42.5379 41.5136 43.0392 41.76 43.4699C42.1226 44.1018 42.3538 44.5806 42.3747 44.6908C42.4512 45.0991 39.6945 46.707 39.7715 46.9879C39.7847 47.0356 39.8632 47.0989 39.9854 47.1742C40.584 47.5444 42.2216 48.1975 42.2216 48.6215Z" fill="#F5D256" stroke="black" stroke-width="0.356161" stroke-linecap="round" stroke-linejoin="round"/>
<path d="M28.6511 22.9664C28.6984 23.6952 29.0638 24.3976 29.6336 24.8544C30.0098 25.1561 30.4618 25.3496 30.8529 25.6325C31.4623 26.0732 31.9087 26.734 32.0906 27.4636C32.1511 27.7072 32.1875 27.9669 32.3358 28.1696C32.5878 28.5138 33.0791 28.5847 33.3912 28.8756C34.0727 29.5099 33.5747 30.764 34.1421 31.5025C34.2867 31.6908 34.4907 31.8282 34.6257 32.0238C34.8593 32.3627 34.8453 32.8079 34.8268 33.219C34.7166 35.672 34.8396 38.3165 36.3146 40.2798C36.5634 40.6108 36.9108 40.9429 37.3235 40.9069C37.7943 40.8656 38.0796 40.3788 38.2591 39.9416C38.8913 38.4018 39.2107 36.7506 39.4014 35.097C39.5653 33.6774 39.6346 32.2225 39.2972 30.8337C38.9783 29.5211 38.3107 28.3251 37.6997 27.1206C37.184 26.1041 36.6804 25.0379 35.8165 24.2942C35.0724 23.6539 34.1256 23.3098 33.2017 22.9788C32.5197 22.7344 31.8381 22.4904 31.1562 22.2459C30.3817 21.9687 29.4441 21.7138 28.7998 22.2247" fill="#BA735A"/>
<path d="M22.6384 26.0692C22.3311 27.498 22.0887 28.95 22.0995 30.4117C22.1103 31.8734 22.3848 33.3523 23.0627 34.6473C23.3865 35.2656 23.9406 35.9059 24.6346 35.8289C25.2228 35.764 25.6379 35.1774 25.7276 34.5928C25.817 34.0079 25.6623 33.4172 25.5457 32.8375C25.4083 32.1539 25.323 31.4579 25.333 30.7611C25.3722 27.9872 26.8808 25.4858 28.0496 22.9695C28.2628 22.5103 28.4687 22.0355 28.5076 21.531C28.5184 21.3932 28.5124 21.2429 28.4266 21.1344C28.3377 21.0218 28.185 20.9825 28.042 20.9685C27.5848 20.9224 27.1276 21.059 26.7069 21.2437C25.5858 21.7362 24.641 22.5756 23.8933 23.5453C23.1461 24.5153 22.5847 25.6152 22.0911 26.7359" fill="#FFC7B3"/>
<path d="M31.6564 35.7491C30.9868 36.5745 30.0312 37.1639 28.9926 37.3911C28.9886 36.6406 28.993 35.8897 29.0063 35.1392C29.0083 35.0186 29.0127 34.8916 29.0748 34.7883C29.1441 34.6737 29.2715 34.6095 29.3925 34.5526C29.911 34.3086 30.4367 34.0802 30.9492 33.8234C31.2128 33.6912 31.4733 33.5521 31.7257 33.3995C31.9044 33.2913 32.2766 32.9107 32.4693 32.8898C32.9385 32.8389 32.5583 33.9881 32.477 34.2357C32.2975 34.7838 32.0198 35.3003 31.6564 35.7483V35.7491Z" fill="#B27059"/>
<path d="M37.7845 40.358C37.7829 40.4654 37.7801 40.5824 37.7753 40.7098C37.7709 40.8397 37.7645 40.9803 37.7561 41.133C37.6286 43.4557 32.8549 57.7091 32.8549 57.7091H32.3228C32.3228 57.7091 27.6132 44.2811 27.2394 41.4114C27.2286 41.3309 27.2217 41.2588 27.2181 41.1955C27.1813 40.5239 27.1997 40.0772 27.245 39.7815C27.3051 39.7702 27.3636 39.759 27.4205 39.7478C27.4004 39.8848 27.6088 40.5884 27.9141 41.4864C28.5784 43.4417 29.7024 46.3194 29.9263 46.2849C30.0053 46.2729 30.1736 46.1154 30.3771 45.8742C31.0138 45.1177 31.9943 43.5342 31.6481 43.0005L31.8729 43.1532C31.8729 43.1532 32.8373 46.3538 33.4527 46.3951C33.9231 46.4264 36.1185 43.4233 37.2135 41.5172C37.3285 41.3173 37.4311 41.1294 37.5184 40.9583C37.6395 40.7219 37.7308 40.5175 37.7845 40.358Z" fill="#C9C4FE" stroke="black" stroke-width="0.356161" stroke-linecap="round" stroke-linejoin="round"/>
<path d="M37.7752 40.7097C37.7708 40.8395 37.7644 40.9802 37.7559 41.1328C37.6285 43.4556 32.8548 57.709 32.8548 57.709H32.3227C32.3227 57.709 27.6131 44.281 27.2393 41.4113C27.3262 41.239 27.4208 41.0707 27.5225 40.9069C27.6532 41.0996 27.7838 41.2927 27.914 41.4862C28.64 42.5657 29.3472 43.6599 29.9146 44.8295C30.0813 45.1725 30.2352 45.5211 30.377 45.8741C31.2308 47.9961 31.6576 50.2836 31.8315 52.5695C31.8755 53.1489 31.9941 53.8565 32.5427 54.0484C35.0053 50.3157 35.2982 45.5568 37.2134 41.5171C37.2399 41.461 37.2667 41.4049 37.294 41.3488C37.3597 41.2134 37.4286 41.0779 37.5183 40.9581C37.5456 40.9217 37.5744 40.8864 37.6061 40.8536C37.6582 40.7991 37.7151 40.7514 37.7752 40.7097Z" fill="#A2A0F2"/>
<path d="M32.5801 18.1566C33.6118 17.6028 34.9737 17.7415 35.8725 18.4919C36.0356 18.6282 36.187 18.7844 36.3777 18.879C36.9331 19.1555 37.6271 18.8345 38.2125 19.0401C38.6732 19.202 38.983 19.7128 38.9136 20.196C38.874 20.4713 38.7273 20.7426 38.7902 21.0134C38.8936 21.4582 39.467 21.5892 39.9222 21.5512C40.3773 21.5135 40.887 21.4109 41.2504 21.6874C41.6447 21.9871 41.6511 22.5813 41.5193 23.0589C41.387 23.5361 41.1531 24.0053 41.1959 24.4986C41.9043 24.87 42.9273 24.3219 43.5091 24.8712C43.937 25.2755 43.7963 25.9747 43.6301 26.5392C43.4638 27.1038 43.3436 27.8134 43.7911 28.1956C44.2784 28.612 45.1102 28.3247 45.6026 28.7346C46.1367 29.1793 45.8767 30.0248 45.6675 30.6875C45.4283 31.4468 45.3181 32.2465 45.3442 33.0423C45.351 33.251 45.3718 33.4734 45.4996 33.6389C45.6892 33.8853 46.0494 33.9226 46.3559 33.8689C46.662 33.8152 46.9589 33.6922 47.2699 33.695C48.0075 33.7018 48.5624 34.4234 48.7111 35.1459C48.8598 35.8687 48.7235 36.616 48.7299 37.3536C48.7327 37.6978 48.8642 38.141 49.2079 38.151C49.3221 38.8602 48.5488 39.567 48.8433 40.2221C48.9247 40.4032 49.0773 40.541 49.1887 40.7053C49.4548 41.0992 49.454 41.6553 49.1863 42.048C48.9187 42.4407 48.401 42.645 47.9374 42.5408" stroke="black" stroke-width="0.356161" stroke-linecap="round" stroke-linejoin="round"/>
<path d="M31.886 17.6795C32.9177 17.1258 34.2797 17.2644 35.1784 18.0149C35.3415 18.1511 35.4929 18.3074 35.6836 18.402C36.239 18.6784 36.933 18.3575 37.5184 18.563C37.9791 18.7249 38.2889 19.2358 38.2196 19.719C38.1799 19.9943 38.0332 20.2655 38.0961 20.5364C38.1995 20.9811 38.7729 21.1122 39.2281 21.0741C39.6832 21.0364 40.1929 20.9339 40.5563 21.2103C40.9506 21.51 40.957 22.1043 40.8252 22.5819C40.693 23.0591 40.459 23.5283 40.5018 24.0215C41.2102 24.3929 42.2332 23.8448 42.815 24.3941C43.2429 24.7984 43.1023 25.4976 42.936 26.0622C42.7697 26.6267 42.6495 27.3363 43.097 27.7186C43.5843 28.1349 44.4161 27.8476 44.9085 28.2575C45.4426 28.7023 45.1826 29.5477 44.9734 30.2104C44.7342 30.9697 44.624 31.7695 44.6501 32.5652C44.6569 32.774 44.6777 32.9964 44.8055 33.1619C44.9951 33.4083 45.3553 33.4455 45.6618 33.3918C45.9679 33.3382 46.2648 33.2151 46.5758 33.2179C47.3134 33.2248 47.8684 33.9464 48.017 34.6688C48.1657 35.3916 48.0294 36.1389 48.0358 36.8766C48.0386 37.2208 48.1701 37.6639 48.5139 37.6739C48.628 38.3831 47.8547 39.0899 48.1492 39.745C48.2306 39.9262 48.3832 40.064 48.4946 40.2283C48.7607 40.6221 48.7599 41.1783 48.4922 41.5709C48.2246 41.9636 47.7069 42.168 47.2433 42.0638" stroke="black" stroke-width="0.356161" stroke-linecap="round" stroke-linejoin="round"/>
<path d="M24.057 20.0675C23.6439 19.8235 23.0866 19.9781 22.7364 20.3063C22.3862 20.6344 22.1987 21.0968 22.0388 21.5492C21.8789 22.0016 21.7303 22.4708 21.433 22.8474C20.9906 23.4072 20.2622 23.7057 19.8827 24.3103C19.3442 25.1682 19.6912 26.3073 19.4135 27.2814C19.2136 27.9825 18.6959 28.5687 18.5461 29.282C18.2504 30.6879 19.4448 32.1981 18.8566 33.5091C18.641 33.9904 18.2167 34.3434 17.9294 34.7853C17.5404 35.3835 17.4198 36.1496 17.6061 36.8388C17.6934 37.1618 17.8457 37.4767 17.8329 37.8109C17.8224 38.0901 17.697 38.351 17.574 38.6018C17.3076 39.1463 17.0411 39.6913 16.7747 40.2358C16.6625 40.4646 16.5483 40.7042 16.5491 40.959C16.5507 41.4114 16.9049 41.7744 17.235 42.0841C17.3488 42.1911 17.4694 42.3017 17.6209 42.341C17.8092 42.3898 18.0052 42.3185 18.1863 42.2484C18.859 41.9884 19.5317 41.7279 20.2045 41.4679" stroke="black" stroke-width="0.356161" stroke-linecap="round" stroke-linejoin="round"/>
<path d="M24.9701 18.85C24.557 18.6059 23.9997 18.7606 23.6495 19.0888C23.2993 19.4169 23.1118 19.8793 22.9519 20.3317C22.792 20.784 22.6434 21.2532 22.3461 21.6299C21.9037 22.1896 21.1753 22.4881 20.7958 23.0928C20.2573 23.9506 20.6043 25.0898 20.3266 26.0638C20.1267 26.765 19.609 27.3512 19.4592 28.0644C19.1635 29.4704 20.3579 30.9806 19.7697 32.2916C19.5541 32.7728 19.1298 33.1258 18.8425 33.5678C18.4534 34.166 18.3328 34.9321 18.5192 35.6213C18.6065 35.9442 18.7588 36.2592 18.7459 36.5933C18.7355 36.8726 18.6101 37.1334 18.4871 37.3843C18.2207 37.9288 17.9542 38.4737 17.6877 39.0183C17.5756 39.247 17.4614 39.4866 17.4622 39.7415C17.4638 40.1938 17.818 40.5569 18.1481 40.8666C18.2619 40.9736 18.3825 41.0842 18.534 41.1234C18.7223 41.1723 18.9182 41.101 19.0993 41.0309C19.7721 40.7708 20.4448 40.5104 21.1176 40.2503" stroke="black" stroke-width="0.356161" stroke-linecap="round" stroke-linejoin="round"/>
<path d="M27.7129 21.0588C27.7129 21.0588 27.573 21.2508 27.3442 21.5913" stroke="black" stroke-width="0.356161" stroke-linecap="round" stroke-linejoin="round"/>
<path d="M32.6686 32.7173C31.7831 33.36 30.3947 34.2591 28.9507 34.7684" stroke="black" stroke-width="0.356161" stroke-linecap="round" stroke-linejoin="round"/>
<path d="M49.0995 41.9846C49.0815 41.8764 49.0566 41.749 49.0278 41.6088C48.8751 40.8647 48.6183 39.7672 48.7754 39.2968C49.0057 38.6057 49.2073 37.7414 48.4296 37.3383C47.6518 36.9352 47.508 36.6183 47.5369 35.7252C47.5589 35.0284 47.2131 34.3316 46.7587 33.6208C46.6309 33.4208 46.4947 33.2201 46.3556 33.0178C46.3148 32.9585 46.2795 32.9016 46.2479 32.8463C45.7955 32.0421 46.2971 31.6338 45.866 30.7711C45.7723 30.5836 45.65 30.4358 45.5142 30.3112C44.9821 29.8231 44.2417 29.6969 44.1956 28.9857C44.192 28.9308 44.1896 28.8739 44.1884 28.8158C44.1659 27.9287 44.351 26.7034 43.6482 26.1629C43.5693 26.102 43.4932 26.0427 43.4207 25.9834C42.8144 25.4934 42.4242 25.0526 42.191 24.3274C42.187 24.3154 42.183 24.3033 42.1793 24.2909C41.9213 23.4591 41.8917 22.7988 40.9529 22.3949C40.9489 22.3933 40.9448 22.3913 40.9408 22.3897C40.5935 22.2422 40.4115 21.9722 40.2897 21.6657C40.0778 21.1336 40.0469 20.4933 39.6446 20.2008C39.4399 20.0517 39.1959 20.0145 38.9354 20.0044C38.3897 19.9836 37.7703 20.0846 37.283 19.5384C37.1111 19.3461 36.9757 19.1522 36.8579 18.9679C36.4809 18.3797 36.2841 17.89 35.6703 17.868C35.3854 17.858 35.0428 17.9197 34.6926 17.9894C34.1593 18.0964 33.608 18.2226 33.2121 18.1445C33.1316 18.1284 33.0574 18.1044 32.9913 18.0695C32.3867 17.7526 32.4728 17.1191 31.6955 17.3495C31.1738 17.5042 30.8204 17.6845 30.5227 17.8564C30.3765 17.9405 30.2439 18.0227 30.1112 18.0984C30.1112 18.0984 28.8888 16.7914 28.0826 17.3002C27.276 17.8087 26.4009 18.6838 26.0728 18.7567C25.9762 18.7784 25.8131 18.7808 25.6208 18.7848C25.1604 18.7944 24.5329 18.8128 24.2501 19.1213C23.849 19.5589 23.5938 20.7729 23.1201 21.059C22.6461 21.3451 21.3335 22.2567 21.1512 22.7307C20.9689 23.2043 21.1512 23.8241 20.896 24.4804C20.6407 25.1368 19.839 26.2667 19.6202 26.8865C19.4014 27.5064 20.2036 28.2721 19.9848 28.9645C19.766 29.6572 19.1097 30.7511 19.0733 31.2616C19.0661 31.365 19.0733 31.4683 19.0893 31.5777C19.1506 32.0056 19.3353 32.5189 19.2191 33.4489C19.1923 33.6645 19.1378 33.8612 19.0665 34.0431C18.7519 34.8469 18.1052 35.363 18.0159 35.9279C17.9718 36.2076 18.0996 36.5466 18.2515 36.8968C18.4759 37.4144 18.7515 37.9574 18.5993 38.3705C18.5993 38.3705 18.5892 38.3761 18.5708 38.3873C18.4053 38.4863 17.5675 39.0083 17.4693 39.5008C17.4148 39.7724 17.6521 40.2032 17.864 40.6355C18.0383 40.9909 18.1958 41.3471 18.1605 41.6156C20.3915 40.9745 23.6623 40.4215 25.9666 40.0133C26.1709 39.8213 26.3753 39.6554 26.5752 39.526C26.905 39.3125 27.2235 39.1971 27.5148 39.2227C27.5785 39.2067 27.6266 39.2395 27.6266 39.2395C27.8846 38.8132 28.3482 38.4037 28.8411 38.7347C28.9821 37.4293 28.9505 34.7691 28.9505 34.7691C27.5236 35.2732 26.0427 35.3962 24.9396 34.5151C23.4255 33.3059 23.268 31.3549 23.7172 29.3095C24.4007 26.1954 26.4915 22.8621 27.3445 21.5919C27.3545 21.626 27.8422 23.2572 28.4696 23.5709C29.1031 23.8874 30.1978 23.7724 30.8024 24.2044C31.4074 24.6363 31.4936 25.8171 31.8971 26.1629C32.3002 26.5087 33.9421 26.7968 34.1437 27.3149C34.3452 27.8333 33.9706 28.8126 34.5179 29.2738C35.0653 29.7346 35.6987 29.4176 35.9868 30.1665C36.2749 30.9154 35.3557 31.9379 35.9315 32.5714C36.5077 33.2049 36.9264 33.4164 36.8691 34.3853C36.8114 35.3545 35.9576 36.4252 36.4761 37.3183C36.6223 37.5703 36.7802 37.8307 36.9352 38.0972C36.9497 38.1216 36.9641 38.1465 36.9781 38.1717C37.1476 38.4642 37.3119 38.7631 37.4525 39.0648C37.5919 39.3638 37.7081 39.6651 37.7827 39.9656C37.8015 40.0405 37.8171 40.115 37.8304 40.1896C38.003 41.1688 37.5423 42.2923 38.32 42.7243C39.0977 43.1562 40.2208 42.0042 40.8547 42.0331C40.8579 42.0331 40.8611 42.0335 40.8643 42.0339C41.4962 42.0667 42.2699 42.5516 43.0436 42.5516C43.8173 42.5516 45.2614 42.3212 45.5779 42.465C45.8949 42.6093 46.9607 43.7901 47.7672 43.3581C48.5734 42.9258 49.0342 42.6093 49.1207 42.3212C49.1372 42.2659 49.1264 42.1465 49.0995 41.9846ZM37.5519 39.2395C37.5519 39.2395 37.5972 39.181 37.6476 39.2239C37.6152 39.2275 37.5835 39.2323 37.5519 39.2395Z" fill="#3D0027" stroke="black" stroke-width="0.356161" stroke-linecap="round" stroke-linejoin="round"/>
<path d="M49.0995 41.9846C49.0815 41.8764 49.0566 41.749 49.0278 41.6088C48.8751 40.8647 48.6183 39.7672 48.7754 39.2968C49.0057 38.6057 49.2073 37.7414 48.4296 37.3383C47.6518 36.9352 47.508 36.6183 47.5369 35.7252C47.5589 35.0284 47.2131 34.3316 46.7587 33.6208C46.6309 33.4208 46.4947 33.2201 46.3556 33.0178C46.3148 32.9585 46.2795 32.9016 46.2479 32.8463C45.7955 32.0421 46.2971 31.6338 45.866 30.7711C45.7723 30.5836 45.65 30.4358 45.5142 30.3112C44.9821 29.8231 44.2417 29.6969 44.1956 28.9857C44.192 28.9308 44.1896 28.8739 44.1884 28.8158C44.1659 27.9287 44.351 26.7034 43.6482 26.1629C43.5693 26.102 43.4932 26.0427 43.4207 25.9834C42.8144 25.4934 42.4242 25.0526 42.191 24.3274C42.187 24.3154 42.183 24.3033 42.1793 24.2909C41.9213 23.4591 41.8917 22.7988 40.9529 22.3949C40.9489 22.3933 40.9448 22.3913 40.9408 22.3897C40.5935 22.2422 40.4115 21.9722 40.2897 21.6657C40.0778 21.1336 40.0469 20.4933 39.6446 20.2008C39.4399 20.0517 39.1959 20.0145 38.9354 20.0044C38.3897 19.9836 37.7703 20.0846 37.283 19.5384C37.1111 19.3461 36.9757 19.1522 36.8579 18.9679C36.4809 18.3797 36.2841 17.89 35.6703 17.868C35.3854 17.858 35.0428 17.9197 34.6926 17.9894C34.1593 18.0964 33.608 18.2226 33.2121 18.1445C33.1316 18.1284 33.0574 18.1044 32.9913 18.0695C32.3867 17.7526 32.4728 17.1191 31.6955 17.3495C31.1738 17.5042 30.8204 17.6845 30.5227 17.8564C30.3765 17.9405 30.2439 18.0227 30.1112 18.0984C30.1112 18.0984 28.8888 16.7914 28.0826 17.3002C27.276 17.8087 26.4009 18.6838 26.0728 18.7567C25.9762 18.7784 25.8131 18.7808 25.6208 18.7848C25.1604 18.7944 24.5329 18.8128 24.2501 19.1213C23.849 19.5589 23.5938 20.7729 23.1201 21.059C22.6461 21.3451 21.3335 22.2567 21.1512 22.7307C20.9689 23.2043 21.1512 23.8241 20.896 24.4804C20.6407 25.1368 19.839 26.2667 19.6202 26.8865C19.4014 27.5064 20.2036 28.2721 19.9848 28.9645C19.766 29.6572 19.1097 30.7511 19.0733 31.2616C19.0661 31.365 19.0733 31.4683 19.0893 31.5777C19.1506 32.0056 19.3353 32.5189 19.2191 33.4489C19.1923 33.6645 19.1378 33.8612 19.0665 34.0431C18.7519 34.8469 18.1052 35.363 18.0159 35.9279C17.9718 36.2076 18.0996 36.5466 18.2515 36.8968C18.4759 37.4144 18.7515 37.9574 18.5993 38.3705C18.5993 38.3705 18.5892 38.3761 18.5708 38.3873C18.4053 38.4863 17.5675 39.0083 17.4693 39.5008C17.4148 39.7724 17.6521 40.2032 17.864 40.6355C18.0383 40.9909 18.1958 41.3471 18.1605 41.6156C20.3915 40.9745 23.6623 40.4215 25.9666 40.0133C26.1709 39.8213 26.3753 39.6554 26.5752 39.526C26.905 39.3125 27.2235 39.1971 27.5148 39.2227C27.5785 39.2067 27.6266 39.2395 27.6266 39.2395C27.8846 38.8132 28.3482 38.4037 28.8411 38.7347C28.9821 37.4293 28.9505 34.7691 28.9505 34.7691C27.5236 35.2732 26.0427 35.3962 24.9396 34.5151C23.4255 33.3059 23.268 31.3549 23.7172 29.3095C24.4007 26.1954 26.4915 22.8621 27.3445 21.5919C27.3497 21.6092 27.4796 22.0439 27.6891 22.5067C27.8895 22.949 28.1627 23.4178 28.4696 23.5709C28.8323 23.752 29.3459 23.7917 29.832 23.8738C30.1954 23.9347 30.5436 24.0197 30.8024 24.2044C31.1302 24.4384 31.3057 24.8923 31.4619 25.3143C31.5942 25.6709 31.7124 26.0042 31.8971 26.1629C32.2409 26.4578 33.487 26.711 33.9702 27.1005C34.0535 27.1678 34.114 27.2387 34.1437 27.3149C34.1854 27.4218 34.2026 27.5485 34.2082 27.6863C34.2298 28.2156 34.0836 28.908 34.5179 29.2738C35.0653 29.7346 35.6987 29.4176 35.9868 30.1665C36.2749 30.9154 35.3557 31.9379 35.9315 32.5714C36.5077 33.2049 36.9264 33.4164 36.8691 34.3853C36.8114 35.3545 35.9576 36.4252 36.4761 37.3183C36.6223 37.5703 36.7802 37.8307 36.9352 38.0972C36.9497 38.1216 36.9641 38.1465 36.9781 38.1717C37.1476 38.4642 37.3119 38.7631 37.4525 39.0648C37.5919 39.3638 37.7081 39.6651 37.7827 39.9656C37.7987 40.0301 37.8127 40.0942 37.8247 40.1583C37.8267 40.1687 37.8284 40.1791 37.8304 40.1896C38.003 41.1688 37.5423 42.2923 38.32 42.7243C39.0977 43.1562 40.2208 42.0042 40.8547 42.0331C40.8579 42.0331 40.8611 42.0335 40.8643 42.0339C41.4962 42.0667 42.2699 42.5516 43.0436 42.5516C43.8173 42.5516 45.2614 42.3212 45.5779 42.465C45.8949 42.6093 46.9607 43.7901 47.7672 43.3581C48.5734 42.9258 49.0342 42.6093 49.1207 42.3212C49.1372 42.2659 49.1264 42.1465 49.0995 41.9846ZM37.5519 39.2395C37.5519 39.2395 37.5972 39.181 37.6476 39.2239C37.6152 39.2275 37.5835 39.2323 37.5519 39.2395Z" fill="#3D0027" stroke="black" stroke-width="0.356161" stroke-linecap="round" stroke-linejoin="round"/>
<path d="M32.3225 57.7088C32.3225 57.7088 32.0957 58.1452 31.8024 58.6625C31.1221 58.4741 29.983 58.1472 28.6731 57.7665C26.3997 54.4253 22.9554 48.974 22.9554 48.6226C22.9554 48.1121 25.329 47.2695 25.4056 46.989C25.4821 46.7081 22.7258 45.1002 22.8023 44.6919C22.8576 44.3962 24.4255 41.458 25.9657 40.0136C26.1861 39.8068 26.4061 39.6305 26.6208 39.4971C26.9338 39.3023 27.2363 39.1986 27.514 39.223C27.4262 39.245 27.3084 39.36 27.2447 39.7812C27.1994 40.0769 27.181 40.5236 27.2179 41.1952C27.2944 42.5907 29.1219 48.2712 30.5683 52.5833C31.5296 55.4482 32.3225 57.7088 32.3225 57.7088Z" fill="#F5D256" stroke="black" stroke-width="0.356161" stroke-linecap="round" stroke-linejoin="round"/>
<path d="M27.6259 39.2393C27.5133 39.4252 27.44 39.6147 27.4204 39.7469C27.3635 39.7581 27.305 39.7694 27.2449 39.7806C27.3086 39.3595 27.4264 39.2445 27.5141 39.2224C27.5778 39.2064 27.6259 39.2393 27.6259 39.2393Z" stroke="black" stroke-width="0.356161" stroke-linecap="round" stroke-linejoin="round"/>
<path d="M37.6475 39.224C37.6151 39.2276 37.5834 39.2324 37.5518 39.2396C37.5518 39.2396 37.597 39.1811 37.6475 39.224Z" stroke="black" stroke-width="0.356161" stroke-linecap="round" stroke-linejoin="round"/>
<path d="M28.6733 57.7652C27.6352 57.4639 26.49 57.1293 25.3801 56.804C22.5521 55.975 19.9549 55.2068 19.9549 55.2068L14.1006 44.6437C14.1006 44.6437 14.0385 43.9934 15.9898 42.5064C16.3985 42.1951 17.1786 41.8962 18.1599 41.6145C20.0206 41.08 22.6046 40.6064 24.7479 40.227C25.1746 40.1516 25.5837 40.0799 25.9659 40.0122C24.4257 41.4567 22.8579 44.3949 22.8026 44.6906C22.726 45.0989 25.4823 46.7068 25.4058 46.9877C25.3293 47.2681 22.9556 48.1108 22.9556 48.6212C22.9556 48.9726 26.3999 54.4239 28.6733 57.7652Z" fill="#F5D256" stroke="black" stroke-width="0.356161" stroke-linecap="round" stroke-linejoin="round"/>
<path d="M18.5708 38.3862C18.6678 38.7757 18.7343 39.1712 18.6734 39.5642C18.6017 40.0286 18.2943 40.4886 17.864 40.6345C17.6521 40.2021 17.4148 39.7714 17.4693 39.4997C17.5675 39.0073 18.4053 38.4852 18.5708 38.3862Z" fill="#6D1151"/>
<path d="M19.066 34.043C19.0732 34.2818 19.0564 34.5182 18.9935 34.7486C18.8416 35.3043 18.4325 35.7655 18.2987 36.3261C18.2538 36.514 18.2414 36.7051 18.251 36.8966C18.0992 36.5464 17.9713 36.2075 18.0154 35.9278C18.1048 35.3628 18.7515 34.8467 19.066 34.043Z" fill="#6D1151"/>
<path d="M25.6196 18.7849C24.9292 19.5522 24.2216 20.3115 23.3858 20.9149C22.9054 21.2615 22.3697 21.57 22.0527 22.0701C21.5932 22.7957 21.7017 23.7473 21.3732 24.5411C21.0282 25.3749 20.21 26.0212 20.1407 26.9207C20.0766 27.7486 20.6844 28.5379 20.5466 29.3565C20.3975 30.2392 19.4599 30.7693 19.0881 31.5779C19.0725 31.4685 19.0649 31.3651 19.0721 31.2617C19.1085 30.7513 19.7649 29.6574 19.9836 28.9646C20.2024 28.2722 19.4002 27.5065 19.619 26.8867C19.8378 26.2668 20.6395 25.1369 20.8948 24.4806C21.15 23.8243 20.9677 23.2044 21.15 22.7308C21.3323 22.2568 22.6449 21.3453 23.119 21.0592C23.5926 20.7731 23.8478 19.559 24.2489 19.1215C24.5318 18.813 25.1592 18.7945 25.6196 18.7849Z" fill="#6D1151"/>
<path d="M30.5677 52.5833C30.4796 52.7043 30.3285 52.7861 30.1863 52.7456C30.0633 52.7107 29.9811 52.5978 29.9094 52.492C27.8375 49.4248 26.6018 45.799 26.3698 42.1051C26.3149 41.3029 26.3141 40.4695 26.5545 39.6946C26.575 39.6285 26.597 39.5628 26.6202 39.4971C26.9332 39.3023 27.2357 39.1986 27.5133 39.223C27.4256 39.245 27.3078 39.36 27.2441 39.7812C27.1988 40.0769 27.1804 40.5236 27.2172 41.1952C27.2938 42.5907 29.1213 48.2712 30.5677 52.5833Z" fill="#FFE8A9"/>
<path d="M29.9262 46.2843C29.5992 46.3344 27.3562 40.1831 27.4203 39.7472C27.4399 39.6149 27.5133 39.4254 27.6258 39.2395C27.8731 38.8312 28.309 38.4381 28.7786 38.697C28.799 38.7082 28.8199 38.7206 28.8403 38.7346C28.9168 38.7863 30.9984 41.9974 31.5429 42.8376C31.5902 42.9109 31.6262 42.9662 31.6479 42.9999C32.1043 43.7039 30.2535 46.2338 29.9262 46.2843Z" fill="#49A2A6" stroke="black" stroke-width="0.356161" stroke-linecap="round" stroke-linejoin="round"/>
<path d="M37.7841 40.358C37.3229 41.7327 34.0405 46.4347 33.4523 46.3955C33.1213 46.3734 32.689 45.4366 32.3608 44.576C32.0784 43.8367 31.8724 43.1535 31.8724 43.1535C31.7851 42.8747 32.8032 42.4499 34.2008 41.1593C34.692 40.7054 35.1295 40.255 35.503 39.8455C36.4069 38.8534 36.9342 38.0981 36.9342 38.0981C36.9486 38.1226 36.9631 38.1474 36.9771 38.1727C37.3321 38.8013 37.6655 39.7181 37.7837 40.0575C37.7853 40.1484 37.7853 40.2478 37.7841 40.358Z" fill="#49A2A6" stroke="black" stroke-width="0.356161" stroke-linecap="round" stroke-linejoin="round"/>
<path d="M37.7848 40.3563C37.786 40.2461 37.786 40.1467 37.7844 40.0562C37.8141 40.1403 37.8301 40.1888 37.8301 40.1888C37.8213 40.2369 37.8061 40.293 37.7848 40.3563Z" stroke="black" stroke-width="0.356161" stroke-linecap="round" stroke-linejoin="round"/>
<path d="M27.626 39.2393C27.5891 39.2312 27.5518 39.2256 27.5142 39.2224C27.5779 39.2064 27.626 39.2393 27.626 39.2393Z" stroke="black" stroke-width="0.356161" stroke-linecap="round" stroke-linejoin="round"/>
<path d="M37.6475 39.224C37.6151 39.2276 37.5834 39.2324 37.5518 39.2396C37.5518 39.2396 37.597 39.1811 37.6475 39.224Z" stroke="black" stroke-width="0.356161" stroke-linecap="round" stroke-linejoin="round"/>
<path d="M37.7837 40.3573C37.7849 40.2471 37.7849 40.1477 37.7833 40.0572C37.7833 40.0251 37.7821 39.9951 37.7812 39.9658C37.8001 40.0407 37.8157 40.1153 37.8289 40.1898C37.8201 40.2379 37.8049 40.294 37.7837 40.3573Z" stroke="black" stroke-width="0.356161" stroke-linecap="round" stroke-linejoin="round"/>
<path d="M26.8729 27.1118C26.8729 27.1118 25.85 29.0908 26.2034 29.3697C26.5568 29.6485 27.4495 28.6444 27.4495 28.6444" stroke="black" stroke-width="0.356161" stroke-linecap="round" stroke-linejoin="round"/>
<path d="M28.825 31.8833C28.0324 32.3786 27.2014 31.5271 27.2014 31.5271C27.2014 31.5271 27.891 31.5307 28.5281 31.114C29.1652 30.6973 29.3731 30.2397 29.3731 30.2397C29.3731 30.2397 29.6171 31.3885 28.825 31.8833Z" fill="#E938B5" stroke="black" stroke-width="0.356161" stroke-linecap="round" stroke-linejoin="round"/>
<path d="M29.3731 30.2394C29.3731 30.2394 29.1652 30.697 28.5281 31.1137C27.891 31.5304 27.2014 31.5268 27.2014 31.5268C27.2014 31.5268 27.5692 30.6497 27.7812 30.6922C27.9936 30.7347 28.1066 30.8589 28.1915 30.6906C28.2764 30.5227 28.1775 30.3528 28.3894 30.2394C28.6018 30.1264 29.3731 30.2394 29.3731 30.2394Z" fill="#E938B5" stroke="black" stroke-width="0.356161" stroke-linecap="round" stroke-linejoin="round"/>
<path d="M29.5821 29.6326L29.3726 30.2404" stroke="black" stroke-width="0.356161" stroke-linecap="round" stroke-linejoin="round"/>
<path d="M29.1765 29.5255C29.2871 29.4898 29.4101 29.5122 29.5151 29.5627C29.6201 29.6132 29.7098 29.6897 29.7976 29.7659C29.8489 29.8103 29.9033 29.8612 29.9138 29.9281" stroke="black" stroke-width="0.356161" stroke-linecap="round" stroke-linejoin="round"/>
<path d="M50.5674 42.6475C49.9223 43.5121 49.002 44.1741 47.9758 44.5159C46.8535 44.8897 45.619 44.8865 44.4835 44.5523C44.2146 44.4734 43.9514 44.376 43.6966 44.2606C43.0599 43.9725 42.438 43.569 41.7597 43.4709C41.6491 43.4548 41.5369 43.4468 41.4231 43.4488C40.673 43.4621 40.0067 43.906 39.3989 44.346C39.0723 44.5824 38.6908 44.8336 38.3058 44.8196C38.2357 44.8168 38.166 44.8055 38.0958 44.7835C37.732 44.6697 37.5104 44.3083 37.343 43.9657C37.2981 43.874 37.2548 43.781 37.2131 43.6868C37.5257 42.5068 37.7304 41.5889 37.7553 41.1325C37.7717 40.83 37.7809 40.574 37.7837 40.3576C37.8049 40.2939 37.8202 40.2378 37.829 40.1897C38.0017 41.169 37.5409 42.2925 38.3186 42.7244C38.8363 43.0117 39.5066 42.5978 40.084 42.2973C40.3745 42.1462 40.6414 42.0236 40.8533 42.0332C40.8565 42.0332 40.8597 42.0336 40.8629 42.034C41.4948 42.0669 42.2685 42.5517 43.0422 42.5517C43.162 42.5517 43.2979 42.5461 43.4429 42.5373C44.2375 42.4896 45.3089 42.3434 45.5766 42.4652C45.8935 42.6094 46.9593 43.7902 47.7659 43.3583C48.572 42.926 49.0328 42.6094 49.1194 42.3213C49.1358 42.266 49.125 42.1466 49.0981 41.9847C49.5173 42.0921 49.7677 42.1582 49.7849 42.1671C49.8322 42.1907 50.1704 42.3914 50.5674 42.6475Z" fill="#E0B836"/>
<path d="M44.5409 45.419C44.4659 45.5905 44.2972 45.6991 44.1378 45.7976C43.3989 46.2524 42.6605 46.7076 41.922 47.1623C42.4729 47.5274 43.3208 47.5049 43.6233 48.0927C43.772 48.3812 43.7279 48.7282 43.6626 49.0463C43.2162 51.2112 41.9917 53.0836 40.7348 54.9296C39.5856 55.4781 38.4092 56.0382 37.3174 56.5567C39.5155 53.2527 42.2217 48.9342 42.2217 48.6228C42.2217 48.1124 39.8481 47.2697 39.7716 46.9892C39.6946 46.7084 42.4513 45.1004 42.3748 44.6921C42.3539 44.582 42.1228 44.1031 41.7601 43.4713C41.5137 43.0405 41.206 42.5393 40.8634 42.0344C41.4953 42.0673 42.269 42.5521 43.0427 42.5521C43.1625 42.5521 43.2983 42.5465 43.4434 42.5377C43.8906 43.1643 44.2916 43.8255 44.484 44.5527C44.5204 44.6909 44.5493 44.8312 44.5697 44.9742C44.5909 45.1233 44.601 45.2807 44.5409 45.419Z" fill="#E0B836"/>
<path d="M42.2217 48.6226C42.2217 48.8678 40.542 51.6 38.7546 54.3639C38.4825 54.4396 38.1957 54.4533 37.9292 54.3659C38.1343 53.496 38.644 52.7291 39.2066 52.0348C39.7691 51.3404 40.3954 50.6949 40.8934 49.9528C41.0577 49.7084 41.2132 49.4159 41.1326 49.133C41.0301 48.7728 40.6138 48.6234 40.2596 48.5019C39.905 48.3809 39.4999 48.1554 39.4951 47.7811C39.4915 47.5026 39.7214 47.2903 39.9855 47.1753C40.5841 47.5455 42.2217 48.1986 42.2217 48.6226Z" fill="#FFE8A9"/>
<path d="M28.6734 57.7652C27.6352 57.4639 26.4901 57.1293 25.3802 56.804C24.8801 56.0919 24.4049 55.3615 23.9309 54.6323C23.3014 53.6646 22.6724 52.697 22.0429 51.7293C21.8105 51.3723 21.5753 51.0085 21.4515 50.6006C21.2531 49.9483 21.3621 49.2279 21.6546 48.612C21.9471 47.9962 22.4123 47.4761 22.9272 47.0293C23.0141 46.9544 23.1079 46.8719 23.1299 46.7593C23.1752 46.5297 22.9148 46.3714 22.7044 46.268C21.9159 45.8806 21.2568 45.2351 20.8533 44.455C20.7799 44.3131 20.7134 44.1581 20.7295 43.9994C20.7487 43.8107 20.8801 43.6548 21.0079 43.5142C21.6126 42.8478 22.2665 42.2268 22.9621 41.6562C23.5519 41.1726 24.1573 40.7102 24.7479 40.227C25.1746 40.1516 25.5837 40.0799 25.966 40.0122C24.4257 41.4567 22.8579 44.3949 22.8026 44.6906C22.7261 45.0989 25.4823 46.7068 25.4058 46.9877C25.3293 47.2681 22.9556 48.1108 22.9556 48.6212C22.9556 48.9726 26.3999 54.4239 28.6734 57.7652Z" fill="#E0B836"/>
<path d="M31.543 42.8377C31.5122 43.0941 31.4629 43.3489 31.3683 43.5885C31.3218 43.7059 31.2609 43.8237 31.1592 43.8987C30.9248 44.0714 30.5718 43.9375 30.3971 43.7047C30.2224 43.4715 30.1719 43.1722 30.0958 42.8914C29.9098 42.203 29.5492 41.5775 29.2403 40.9348C28.9638 40.3598 28.5615 39.5284 28.7138 38.8701C28.7286 38.8064 28.7503 38.7487 28.7787 38.697C28.7991 38.7082 28.82 38.7207 28.8404 38.7347C28.9169 38.7864 30.9985 41.9974 31.543 42.8377Z" fill="#63BABA"/>
<path d="M51.9847 43.8088C51.9539 44.1185 47.586 51.5219 47.3072 51.7386C47.1349 51.8729 41.5802 54.5326 37.3174 56.5564C39.5155 53.2524 42.2217 48.9339 42.2217 48.6226C42.2217 48.1121 39.8481 47.2694 39.7716 46.989C39.6946 46.7081 42.4513 45.1002 42.3748 44.6919C42.3399 44.5064 41.7092 43.2795 40.8634 42.0341C41.4953 42.067 42.269 42.5518 43.0427 42.5518C43.8164 42.5518 45.2605 42.3214 45.577 42.4653C45.894 42.6095 46.9598 43.7903 47.7663 43.3584C48.5725 42.9261 49.0333 42.6095 49.1198 42.3214C49.1363 42.2661 49.1255 42.1467 49.0986 41.9849C49.5177 42.0922 49.7681 42.1584 49.7854 42.1672C49.9092 42.2289 52.0156 43.499 51.9847 43.8088Z" stroke="black" stroke-width="0.356161" stroke-linecap="round" stroke-linejoin="round"/>
<path d="M42.2216 48.6215C42.2216 48.9328 39.5154 53.2513 37.3173 56.5553C35.6232 57.3595 34.1331 58.0631 33.266 58.4682C33.0272 58.0399 32.8545 57.7077 32.8545 57.7077C32.8545 57.7077 37.6282 43.4543 37.7556 41.1315C37.7721 40.829 37.7813 40.573 37.7841 40.3566C37.8053 40.2929 37.8205 40.2368 37.8294 40.1887C38.002 41.168 37.5413 42.2915 38.319 42.7234C39.0967 43.1554 40.2198 42.0034 40.8537 42.0323C40.8569 42.0323 40.8601 42.0327 40.8633 42.0331C41.7091 43.2784 42.3398 44.5053 42.3747 44.6908C42.4512 45.0991 39.6945 46.707 39.7715 46.9879C39.848 47.2684 42.2216 48.111 42.2216 48.6215Z" stroke="black" stroke-width="0.356161" stroke-linecap="round" stroke-linejoin="round"/>
<path d="M32.3225 57.7089C32.3225 57.7089 32.0957 58.1452 31.8024 58.6625C31.1221 58.4742 29.983 58.1472 28.6731 57.7665C26.3997 54.4253 22.9554 48.974 22.9554 48.6226C22.9554 48.1121 25.329 47.2695 25.4056 46.989C25.4821 46.7081 22.7258 45.1002 22.8023 44.6919C22.8576 44.3962 24.4255 41.458 25.9657 40.0136C26.5074 39.5051 27.046 39.1817 27.514 39.223C27.4262 39.2451 27.3084 39.3601 27.2447 39.7812C27.1994 40.0769 27.181 40.5236 27.2179 41.1952C27.3453 43.5179 32.3225 57.7089 32.3225 57.7089Z" stroke="black" stroke-width="0.356161" stroke-linecap="round" stroke-linejoin="round"/>
<path d="M28.6733 57.7652C24.9899 56.6958 19.9549 55.2068 19.9549 55.2068L14.1006 44.6437C14.1006 44.6437 14.0385 43.9934 15.9898 42.5064C16.3985 42.1951 17.1786 41.8962 18.1599 41.6145C20.3909 40.9734 23.6616 40.4205 25.9659 40.0122C24.4257 41.4567 22.8579 44.3949 22.8026 44.6906C22.726 45.0989 25.4823 46.7068 25.4058 46.9877C25.3293 47.2681 22.9556 48.1108 22.9556 48.6212C22.9556 48.9726 26.3999 54.4239 28.6733 57.7652Z" stroke="black" stroke-width="0.356161" stroke-linecap="round" stroke-linejoin="round"/>
<path d="M35.6669 40.1868C35.6144 40.725 35.5483 41.2967 35.2085 41.7174C34.835 42.179 34.2112 42.3573 33.7692 42.754C33.2087 43.2581 33.0115 44.037 32.7355 44.7386C32.7227 44.771 32.7074 44.8059 32.6762 44.8219C32.6221 44.8492 32.5608 44.8031 32.5191 44.7594C32.4654 44.7029 32.4125 44.6416 32.3608 44.5759C32.0784 43.8366 31.8724 43.1535 31.8724 43.1535C31.7851 42.8746 32.8032 42.4499 34.2008 41.1593C34.692 40.7053 35.1295 40.255 35.503 39.8455C35.5635 39.8731 35.6184 39.9116 35.6472 39.9697C35.6805 40.0358 35.6741 40.1135 35.6669 40.1868Z" fill="#63BABA"/>
<path d="M32.9915 18.0699C33.0577 18.1048 33.1318 18.1288 33.2123 18.1448C33.1843 18.1529 33.1566 18.1617 33.129 18.1701C32.3549 18.4109 30.9897 18.8156 30.5229 17.8568C30.8207 17.6849 31.1741 17.5046 31.6957 17.3499C32.4731 17.1195 32.3869 17.753 32.9915 18.0699Z" fill="#6D1151"/>
<path d="M36.8572 18.9679C36.4345 18.8918 36.0254 18.784 35.6704 18.552C35.462 18.4157 35.2797 18.2406 35.0601 18.1237C34.9419 18.0607 34.8185 18.0175 34.6919 17.9894C35.0421 17.9197 35.3847 17.858 35.6696 17.868C36.2834 17.8901 36.4801 18.3797 36.8572 18.9679Z" fill="#6D1151"/>
<path d="M40.2894 21.6654C39.982 21.5299 39.6326 21.4234 39.3874 21.2078C39.0537 20.9141 38.9571 20.4621 38.9351 20.0042C39.1955 20.0142 39.4395 20.0514 39.6443 20.2005C40.0465 20.493 40.0774 21.1333 40.2894 21.6654Z" fill="#6D1151"/>
<path d="M42.1781 24.291C42.1818 24.3035 42.1858 24.3155 42.1898 24.3275C42.1257 24.289 42.0623 24.2502 41.9998 24.2101C41.4982 23.888 41.017 23.4228 40.9653 22.829C40.9529 22.6851 40.9665 22.5377 40.9517 22.395C41.8905 22.7989 41.9201 23.4592 42.1781 24.291Z" fill="#6D1151"/>
<path d="M44.1878 28.8163C43.2306 28.3078 42.8087 26.9043 43.4201 25.9839C43.4927 26.0432 43.5688 26.1025 43.6477 26.1634C44.3505 26.7039 44.1654 27.9292 44.1878 28.8163Z" fill="#6D1151"/>
<path d="M46.2477 32.8459C45.8975 32.7057 45.4623 32.6159 45.2247 32.3362C44.8673 31.9159 45.1049 31.2796 45.3377 30.7796C45.4054 30.6341 45.4687 30.4739 45.514 30.3108C45.6498 30.4354 45.7721 30.5833 45.8658 30.7708C46.297 31.6334 45.7953 32.0417 46.2477 32.8459Z" fill="#6D1151"/>
<path d="M49.0264 41.6093C48.8381 41.4859 48.6746 41.32 48.5544 41.1313C48.2603 40.6709 48.1866 40.1012 48.2126 39.5554C48.2375 39.0261 48.3481 38.4848 48.2074 37.9739C48.0011 37.2259 47.3127 36.7222 46.918 36.0543C46.5382 35.412 46.4468 34.6066 46.6728 33.8954C46.7017 33.8049 46.7357 33.7135 46.7574 33.6213C47.2117 34.3321 47.5575 35.0289 47.5355 35.7257C47.5066 36.6188 47.6505 36.9358 48.4282 37.3389C49.2059 37.7419 49.0044 38.6062 48.774 39.2974C48.6169 39.7678 48.8738 40.8653 49.0264 41.6093Z" fill="#6D1151"/>
<path d="M29.9254 46.2844C29.5985 46.3345 27.3555 40.1832 27.4196 39.7473C27.4392 39.6151 27.5125 39.4255 27.6251 39.2396C27.8831 38.8133 28.3467 38.4038 28.8396 38.7348C28.9229 38.7908 31.3771 42.5833 31.6471 43C32.1035 43.704 30.2528 46.2339 29.9254 46.2844Z" stroke="black" stroke-width="0.356161" stroke-linecap="round" stroke-linejoin="round"/>
<path d="M37.7841 40.358C37.3229 41.7327 34.0405 46.4347 33.4523 46.3955C32.8369 46.3542 31.8724 43.1535 31.8724 43.1535C31.7851 42.8747 32.8032 42.4499 34.2008 41.1593C35.8816 39.6059 36.9342 38.0981 36.9342 38.0981C36.9486 38.1226 36.9631 38.1474 36.9771 38.1727C37.3321 38.8013 37.6655 39.7181 37.7837 40.0575C37.7853 40.1484 37.7853 40.2478 37.7841 40.358Z" stroke="black" stroke-width="0.356161" stroke-linecap="round" stroke-linejoin="round"/>
<path d="M27.45 21.6658C27.1719 21.9563 27.3093 22.768 27.3899 23.1619C27.4303 23.3595 27.4756 23.5666 27.607 23.7197C27.7581 23.896 27.9945 23.9693 28.2197 24.025C28.7317 24.1516 29.2558 24.2309 29.7827 24.261C29.9446 24.2702 30.1105 24.2758 30.2599 24.3379C30.5685 24.4665 30.7327 24.8015 30.8357 25.1192C30.9387 25.437 31.0152 25.7808 31.242 26.026C31.7449 26.5697 32.757 26.401 33.1961 26.9972C33.4353 27.3222 33.4141 27.7625 33.4029 28.166C33.3917 28.5695 33.4229 29.0235 33.7238 29.2923C34.0095 29.548 34.4342 29.5448 34.8173 29.542C35.2003 29.5392 35.6343 29.5736 35.8779 29.8693C36.1179 30.1602 36.075 30.5877 35.9777 30.952C35.8803 31.3162 35.7393 31.6924 35.8258 32.0594C35.8434 32.1344 35.914 32.2245 35.9785 32.1825" stroke="black" stroke-width="0.356161" stroke-linecap="round" stroke-linejoin="round"/>
<path d="M27.3381 21.7952C26.7944 22.3669 26.6461 23.2801 26.9807 23.9949C27.3156 24.7097 28.1118 25.1801 28.8991 25.1284C29.3451 25.0992 29.8536 24.9361 30.1977 25.2214C30.463 25.4414 30.495 25.8304 30.6517 26.1373C30.8593 26.544 31.292 26.7985 31.7372 26.8998C32.1823 27.0012 32.6459 26.9716 33.1015 26.9411" stroke="black" stroke-width="0.356161" stroke-linecap="round" stroke-linejoin="round"/>
<path d="M28.8406 38.7343C28.3478 38.4033 27.8842 38.8128 27.6262 39.2392C27.6262 39.2392 27.5781 39.2063 27.5144 39.2223C27.2231 39.1967 26.9045 39.3121 26.5748 39.5257C26.5624 39.3738 26.5547 39.2215 26.5495 39.0705C26.5355 38.6714 26.5335 38.2643 26.4069 37.8853C26.2803 37.5066 26.0014 37.1532 25.6143 37.0539C25.2337 36.9561 24.8394 37.1172 24.4472 37.1436C23.5753 37.2017 22.7679 36.5558 22.4145 35.7568C22.0611 34.9579 22.0843 34.0419 22.2266 33.1797C22.4498 31.8226 22.9638 30.5664 23.6682 29.3908C23.6843 29.364 23.7007 29.3367 23.7167 29.3091C23.2676 31.3546 23.425 33.3055 24.9392 34.5147C26.0423 35.3958 27.5232 35.2728 28.95 34.7688C28.95 34.7688 28.9817 37.4289 28.8406 38.7343Z" fill="#210017"/>
<path d="M29.2688 22.7365C29.5633 23.0442 29.6859 23.4661 29.8313 23.874C29.3453 23.7919 28.8316 23.7522 28.469 23.5711C28.1621 23.418 27.8888 22.9492 27.6885 22.5069C28.1905 22.2492 28.8721 22.3214 29.2688 22.7365Z" fill="#6D1151"/>
<path d="M33.9694 27.1012C33.4862 26.7117 32.2401 26.4585 31.8963 26.1636C31.7116 26.0049 31.5934 25.6715 31.4612 25.3149C31.7224 25.3883 31.9885 25.4544 32.2373 25.5477C32.981 25.8262 33.6012 26.3992 33.9694 27.1012Z" fill="#6D1151"/>
<path d="M37.824 40.1583C37.812 40.0942 37.798 40.0301 37.7819 39.9656C37.7074 39.665 37.5912 39.3637 37.4518 39.0648C37.3111 38.7631 37.1469 38.4642 36.9774 38.1717C36.9633 38.1465 36.9489 38.1216 36.9345 38.0972C36.7794 37.8307 36.6216 37.5703 36.4753 37.3183C35.9568 36.4251 36.8107 35.3545 36.8684 34.3853C36.9257 33.4164 36.507 33.2049 35.9308 32.5714C35.355 31.9379 36.2742 30.9154 35.9861 30.1665C35.698 29.4176 35.0645 29.7346 34.5172 29.2738C34.0828 28.908 34.2291 28.2156 34.2075 27.6863C34.2563 27.8514 34.2916 28.0204 34.312 28.1919C34.3273 28.321 34.3357 28.4544 34.395 28.5698C34.5645 28.8999 35.0172 28.9104 35.3791 28.9925C36.2946 29.2013 36.9249 30.2454 36.6837 31.1526C36.5699 31.5801 36.2946 31.9696 36.2886 32.4119C36.2874 32.5061 36.3002 32.6042 36.3507 32.6836C36.4477 32.8346 36.6456 32.8739 36.8127 32.9404C37.5135 33.2193 37.7695 34.108 37.6726 34.8561C37.5752 35.6041 37.2262 36.2985 37.0948 37.0414C37.0635 37.2177 37.0451 37.4004 37.0844 37.5751C37.1408 37.8251 37.3079 38.0323 37.4382 38.2526C37.7775 38.828 37.8605 39.4851 37.824 40.1583Z" fill="#6D1151"/>
<path d="M49.0995 41.9846C48.9865 41.2998 48.5886 39.8558 48.7753 39.2968C49.0057 38.6057 49.2073 37.7414 48.4295 37.3383C47.6518 36.9352 47.508 36.6183 47.5368 35.7252C47.5653 34.8324 46.9895 33.9397 46.3556 33.0178C45.7221 32.0962 46.3268 31.6931 45.866 30.7711C45.4052 29.8496 44.2532 29.8784 44.1955 28.9857C44.1378 28.0926 44.3971 26.7391 43.6482 26.1629C42.8993 25.5867 42.4385 25.1259 42.1793 24.2909C41.9201 23.4555 41.8912 22.7932 40.9408 22.3897C39.9904 21.9866 40.2785 20.6616 39.6446 20.2008C39.0111 19.74 38.003 20.345 37.283 19.5384C36.563 18.7319 36.4764 17.8969 35.6702 17.868C34.8637 17.8392 33.5963 18.3865 32.9913 18.0695C32.3867 17.7526 32.4728 17.1191 31.6955 17.3495C30.9178 17.5799 30.5143 17.868 30.1112 18.0984C30.1112 18.0984 28.8887 16.7914 28.0825 17.3002C27.276 17.8087 26.4009 18.6838 26.0727 18.7567C25.745 18.8296 24.6511 18.6838 24.25 19.1213C23.8489 19.5589 23.5937 20.7729 23.1201 21.059C22.6461 21.3451 21.3335 22.2567 21.1512 22.7307C20.9688 23.2043 21.1512 23.8241 20.8959 24.4804C20.6407 25.1368 19.8389 26.2667 19.6202 26.8865C19.4014 27.5064 20.2035 28.2721 19.9848 28.9645C19.766 29.6572 19.1097 30.7511 19.0732 31.2616C19.0368 31.7716 19.3649 32.2821 19.2191 33.4489C19.0732 34.6153 18.1252 35.2351 18.0158 35.9279C17.9064 36.6207 18.8544 37.6777 18.5992 38.3705C18.5992 38.3705 17.5783 38.9539 17.4693 39.5008C17.3703 39.9956 18.239 41.0206 18.1605 41.6156C20.3915 40.9745 23.6622 40.4215 25.9665 40.0133C26.5083 39.5048 27.0468 39.1814 27.5148 39.2227C27.5785 39.2067 27.6266 39.2395 27.6266 39.2395C27.8846 38.8132 28.3482 38.4037 28.841 38.7347C28.9821 37.4293 28.9504 34.7691 28.9504 34.7691C27.5236 35.2732 26.0427 35.3962 24.9396 34.5151C21.1207 31.4651 25.9309 23.6963 27.3445 21.5919C27.3545 21.626 27.8421 23.2572 28.4696 23.5709C29.1031 23.8874 30.1977 23.7724 30.8024 24.2044C31.4074 24.6363 31.4935 25.8171 31.897 26.1629C32.3001 26.5087 33.9421 26.7968 34.1436 27.3149C34.3452 27.8333 33.9705 28.8126 34.5179 29.2738C35.0652 29.7346 35.6987 29.4176 35.9868 30.1665C36.2749 30.9154 35.3557 31.9379 35.9315 32.5714C36.5077 33.2049 36.9264 33.4164 36.8691 34.3853C36.8114 35.3545 35.9575 36.4252 36.476 37.3183C36.6223 37.5703 36.7801 37.8307 36.9352 38.0972C36.9496 38.1216 36.964 38.1465 36.9781 38.1717C37.1475 38.4642 37.3118 38.7631 37.4525 39.0648C37.5919 39.3638 37.7081 39.6651 37.7826 39.9656C37.8015 40.0405 37.8171 40.115 37.8303 40.1896C38.003 41.1688 37.5422 42.2923 38.3199 42.7243C39.0977 43.1562 40.2208 42.0042 40.8547 42.0331C40.8579 42.0331 40.8611 42.0335 40.8643 42.0339C41.4961 42.0667 42.2699 42.5516 43.0436 42.5516C43.8173 42.5516 45.2613 42.3212 45.5779 42.465C45.8948 42.6093 46.9606 43.7901 47.7672 43.3581C48.5734 42.9258 49.0342 42.6093 49.1207 42.3212C49.1371 42.2659 49.1263 42.1465 49.0995 41.9846ZM37.5518 39.2395C37.5518 39.2395 37.5971 39.181 37.6476 39.2239C37.6151 39.2275 37.5835 39.2323 37.5518 39.2395Z" stroke="black" stroke-width="0.356161" stroke-linecap="round" stroke-linejoin="round"/>
<path d="M27.5286 25.8599H31.2208V26.557C31.2208 27.5567 30.4095 28.3681 29.4098 28.3681H29.34C28.3403 28.3681 27.529 27.5567 27.529 26.557V25.8599H27.5286Z" fill="#E86F3A" stroke="black" stroke-width="0.356161" stroke-linecap="round" stroke-linejoin="round"/>
<path d="M22.5872 25.8599H26.2794V26.557C26.2794 27.5567 25.4681 28.3681 24.4684 28.3681H24.3986C23.3989 28.3681 22.5876 27.5567 22.5876 26.557V25.8599H22.5872Z" fill="#E86F3A" stroke="black" stroke-width="0.356161" stroke-linecap="round" stroke-linejoin="round"/>
<path d="M26.2803 26.5571C26.2803 26.5571 26.6886 25.9112 27.5296 26.5571" stroke="black" stroke-width="0.356161" stroke-linecap="round" stroke-linejoin="round"/>
</g>
<g filter="url(#filter0_d_2_87622)">
<path fill-rule="evenodd" clip-rule="evenodd" d="M51.4429 15.1019L50.1932 13.8522C49.5341 13.1932 48.4657 13.1932 47.8067 13.8522L46.5569 15.1019H44.7894C43.8575 15.1019 43.1019 15.8575 43.1019 16.7894V18.5569L41.8522 19.8067C41.1932 20.4657 41.1932 21.5341 41.8522 22.1932L43.1019 23.4429V25.2104C43.1019 26.1424 43.8575 26.8979 44.7894 26.8979H46.5569L47.8067 28.1477C48.4657 28.8067 49.5341 28.8067 50.1932 28.1477L51.4429 26.8979H53.2104C54.1424 26.8979 54.8979 26.1424 54.8979 25.2104V23.4429L56.1477 22.1932C56.8067 21.5341 56.8067 20.4657 56.1477 19.8067L54.8979 18.5569V16.7894C54.8979 15.8575 54.1424 15.1019 53.2104 15.1019H51.4429ZM50.8122 16.0622C50.9177 16.1677 51.0608 16.2269 51.2099 16.2269H53.2104C53.521 16.2269 53.7729 16.4788 53.7729 16.7894V18.7899C53.7729 18.9391 53.8321 19.0821 53.9376 19.1876L55.3522 20.6022C55.5718 20.8218 55.5718 21.178 55.3522 21.3977L53.9376 22.8122C53.8321 22.9177 53.7729 23.0608 53.7729 23.2099V25.2104C53.7729 25.521 53.521 25.7729 53.2104 25.7729H51.2099C51.0608 25.7729 50.9177 25.8321 50.8122 25.9376L49.3977 27.3522C49.178 27.5718 48.8218 27.5718 48.6022 27.3522L47.1876 25.9376C47.0821 25.8321 46.9391 25.7729 46.7899 25.7729H44.7894C44.4788 25.7729 44.2269 25.521 44.2269 25.2104V23.2099C44.2269 23.0608 44.1677 22.9177 44.0622 22.8122L42.6477 21.3977C42.428 21.178 42.428 20.8218 42.6477 20.6022L44.0622 19.1876C44.1677 19.0821 44.2269 18.9391 44.2269 18.7899V16.7894C44.2269 16.4788 44.4788 16.2269 44.7894 16.2269H46.7899C46.9391 16.2269 47.0821 16.1677 47.1876 16.0622L48.6022 14.6477C48.8218 14.428 49.178 14.428 49.3977 14.6477L50.8122 16.0622Z" fill="white"/>
<path d="M51.2099 16.2269C51.0608 16.2269 50.9177 16.1677 50.8122 16.0622L49.3977 14.6477C49.178 14.428 48.8218 14.428 48.6022 14.6477L47.1876 16.0622C47.0821 16.1677 46.9391 16.2269 46.7899 16.2269H44.7894C44.4788 16.2269 44.2269 16.4788 44.2269 16.7894V18.7899C44.2269 18.9391 44.1677 19.0821 44.0622 19.1876L42.6477 20.6022C42.428 20.8218 42.428 21.178 42.6477 21.3977L44.0622 22.8122C44.1677 22.9177 44.2269 23.0608 44.2269 23.2099V25.2104C44.2269 25.521 44.4788 25.7729 44.7894 25.7729H46.7899C46.9391 25.7729 47.0821 25.8321 47.1876 25.9376L48.6022 27.3522C48.8218 27.5718 49.178 27.5718 49.3977 27.3522L50.8122 25.9376C50.9177 25.8321 51.0608 25.7729 51.2099 25.7729H53.2104C53.521 25.7729 53.7729 25.521 53.7729 25.2104V23.2099C53.7729 23.0608 53.8321 22.9177 53.9376 22.8122L55.3522 21.3977C55.5718 21.178 55.5718 20.8218 55.3522 20.6022L53.9376 19.1876C53.8321 19.0821 53.7729 18.9391 53.7729 18.7899V16.7894C53.7729 16.4788 53.521 16.2269 53.2104 16.2269H51.2099Z" fill="#35B9E9"/>
<path fill-rule="evenodd" clip-rule="evenodd" d="M52.0228 19.5228L48.25 23.2955L46.3523 21.3978L47.1478 20.6023L48.25 21.7045L51.2273 18.7273L52.0228 19.5228Z" fill="white"/>
</g>
<defs>
<filter id="filter0_d_2_87622" x="36" y="10" width="26" height="26" filterUnits="userSpaceOnUse" color-interpolation-filters="sRGB">
<feFlood flood-opacity="0" result="BackgroundImageFix"/>
<feColorMatrix in="SourceAlpha" type="matrix" values="0 0 0 0 0 0 0 0 0 0 0 0 0 0 0 0 0 0 127 0" result="hardAlpha"/>
<feOffset dy="2"/>
<feGaussianBlur stdDeviation="2"/>
<feColorMatrix type="matrix" values="0 0 0 0 0.105882 0 0 0 0 0.109804 0 0 0 0 0.113725 0 0 0 0.04 0"/>
<feBlend mode="normal" in2="BackgroundImageFix" result="effect1_dropShadow_2_87622"/>
<feBlend mode="normal" in="SourceGraphic" in2="effect1_dropShadow_2_87622" result="shape"/>
</filter>
<clipPath id="clip0_2_87622">
<rect x="12" y="12" width="40" height="40" rx="20" fill="white"/>
</clipPath>
</defs>
</svg>
