<svg width="18" height="17" viewBox="0 0 18 17" fill="none" xmlns="http://www.w3.org/2000/svg">
<path d="M8.99994 0.375L12.1694 5.01225L17.5597 6.594L14.1284 11.0415L14.2897 16.656L8.99994 14.7675L3.71019 16.656L3.87144 11.0415L0.440186 6.594L5.83044 5.01225L8.99994 0.375ZM8.99994 3.033L6.76644 6.3015L2.96769 7.41525L5.38644 10.5487L5.27169 14.505L8.99994 13.1745L12.7274 14.505L12.6134 10.5487L15.0314 7.41525L11.2334 6.3015L8.99994 3.033ZM7.49994 9C7.49994 9.39782 7.65797 9.77936 7.93928 10.0607C8.22058 10.342 8.60211 10.5 8.99994 10.5C9.39776 10.5 9.77929 10.342 10.0606 10.0607C10.3419 9.77936 10.4999 9.39782 10.4999 9H11.9999C11.9999 9.79565 11.6839 10.5587 11.1213 11.1213C10.5586 11.6839 9.79558 12 8.99994 12C8.20429 12 7.44122 11.6839 6.87861 11.1213C6.31601 10.5587 5.99994 9.79565 5.99994 9H7.49994Z" fill="#525866"/>
</svg>
