<svg width="14" height="17" viewBox="0 0 14 17" fill="none" xmlns="http://www.w3.org/2000/svg">
<path d="M11.2134 4.476L12.3032 3.38625L13.3637 4.44675L12.2739 5.5365C13.3507 6.88438 13.8706 8.59341 13.7267 10.3126C13.5829 12.0318 12.7862 13.6306 11.5003 14.7808C10.2144 15.9309 8.53695 16.5451 6.81241 16.4971C5.08788 16.4491 3.44718 15.7425 2.22728 14.5226C1.00737 13.3027 0.300869 11.662 0.252861 9.93751C0.204853 8.21298 0.818985 6.53551 1.96913 5.24963C3.11928 3.96375 4.71813 3.16706 6.43732 3.02319C8.15652 2.87931 9.86555 3.39917 11.2134 4.476ZM6.99992 15C7.68936 15 8.37205 14.8642 9.00901 14.6004C9.64597 14.3365 10.2247 13.9498 10.7122 13.4623C11.1997 12.9748 11.5865 12.396 11.8503 11.7591C12.1141 11.1221 12.2499 10.4394 12.2499 9.75C12.2499 9.06056 12.1141 8.37787 11.8503 7.74091C11.5865 7.10395 11.1997 6.5252 10.7122 6.03769C10.2247 5.55018 9.64597 5.16347 9.00901 4.89963C8.37205 4.6358 7.68936 4.5 6.99992 4.5C5.60754 4.5 4.27218 5.05312 3.28761 6.03769C2.30305 7.02226 1.74992 8.35761 1.74992 9.75C1.74992 11.1424 2.30305 12.4777 3.28761 13.4623C4.27218 14.4469 5.60754 15 6.99992 15ZM6.24992 6H7.74992V10.5H6.24992V6ZM3.99992 0.75H9.99992V2.25H3.99992V0.75Z" fill="#525866"/>
</svg>
