<svg width="16" height="16" viewBox="0 0 16 16" fill="none" xmlns="http://www.w3.org/2000/svg">
<path d="M9.24775 0.5L13.75 5L13.7507 8.195C13.3112 7.83021 12.8003 7.56122 12.2507 7.40525L12.25 5.75H8.5V2H1.75V14H5.545C5.6308 14.5406 5.84052 15.054 6.15775 15.5H0.99475C0.812436 15.5 0.636461 15.4331 0.500168 15.312C0.363874 15.1909 0.276731 15.024 0.25525 14.843L0.25 14.756V1.244C0.25 0.8705 0.54025 0.54875 0.91375 0.50525L1.0015 0.5H9.24775ZM11.125 8.75C11.8212 8.75 12.4889 9.02656 12.9812 9.51884C13.4734 10.0111 13.75 10.6788 13.75 11.375L13.7493 11.4523C14.2184 11.5844 14.6257 11.8786 14.8986 12.2824C15.1716 12.6863 15.2928 13.1738 15.2405 13.6584C15.1883 14.1431 14.9661 14.5936 14.6134 14.93C14.2606 15.2664 13.8001 15.467 13.3135 15.4963L13.1875 15.5H9.0625L8.9365 15.4963C8.45001 15.4668 7.98969 15.2659 7.63715 14.9294C7.28462 14.5928 7.06265 14.1423 7.01062 13.6577C6.95858 13.1731 7.07983 12.6858 7.35288 12.2821C7.62592 11.8783 8.03312 11.5844 8.50225 11.4523L8.5 11.375C8.5 10.6788 8.77656 10.0111 9.26884 9.51884C9.76113 9.02656 10.4288 8.75 11.125 8.75ZM11.125 10.25C10.8637 10.2499 10.6105 10.3409 10.4089 10.5071C10.2073 10.6734 10.0699 10.9047 10.0203 11.1613L10.0052 11.2662L10 11.375V12.59L8.917 12.8945C8.7922 12.9278 8.68266 13.0031 8.6068 13.1076C8.53094 13.2122 8.49337 13.3396 8.50041 13.4686C8.50745 13.5976 8.55866 13.7202 8.64545 13.8159C8.73224 13.9116 8.84931 13.9745 8.977 13.994L9.05875 14H13.1912C13.3272 13.999 13.4583 13.9487 13.56 13.8585C13.6618 13.7683 13.7275 13.6443 13.7449 13.5094C13.7623 13.3745 13.7302 13.2379 13.6546 13.1249C13.579 13.0118 13.465 12.93 13.3337 12.8945L12.574 12.6823L12.25 12.59V11.375L12.2448 11.267C12.2179 10.9886 12.0883 10.7302 11.8813 10.5422C11.6743 10.3542 11.4047 10.25 11.125 10.25Z" fill="#525866"/>
</svg>
