<svg width="24" height="24" viewBox="0 0 24 24" fill="none" xmlns="http://www.w3.org/2000/svg">
<path d="M13.8 21.45L11.28 18.3H6.60001C6.36131 18.3 6.13239 18.2052 5.96361 18.0364C5.79483 17.8676 5.70001 17.6387 5.70001 17.4V7.5927C5.70001 7.35401 5.79483 7.12509 5.96361 6.9563C6.13239 6.78752 6.36131 6.6927 6.60001 6.6927H21C21.2387 6.6927 21.4676 6.78752 21.6364 6.9563C21.8052 7.12509 21.9 7.35401 21.9 7.5927V17.4C21.9 17.6387 21.8052 17.8676 21.6364 18.0364C21.4676 18.2052 21.2387 18.3 21 18.3H16.32L13.8 21.45ZM15.4551 16.5H20.1V8.4927H7.50001V16.5H12.1449L13.8 18.5682L15.4551 16.5ZM3.00001 3H18.3V4.8H3.90001V14.7H2.10001V3.9C2.10001 3.66131 2.19483 3.43239 2.36361 3.2636C2.53239 3.09482 2.76131 3 3.00001 3Z" fill="#525866"/>
</svg>
