<svg width="24" height="24" viewBox="0 0 24 24" fill="none" xmlns="http://www.w3.org/2000/svg">
<path d="M17.0562 6.57118L18.3639 5.26348L19.6365 6.53608L18.3288 7.84377C19.621 9.46123 20.2448 11.5121 20.0722 13.5751C19.8995 15.6381 18.9435 17.5567 17.4004 18.9369C15.8574 20.3171 13.8444 21.0541 11.775 20.9964C9.70555 20.9388 7.73671 20.091 6.27283 18.6271C4.80895 17.1633 3.96114 15.1944 3.90353 13.125C3.84592 11.0555 4.58288 9.04259 5.96306 7.49953C7.34323 5.95648 9.26185 5.00045 11.3249 4.8278C13.3879 4.65515 15.4388 5.27898 17.0562 6.57118ZM12 19.2C12.8273 19.2 13.6466 19.037 14.4109 18.7204C15.1753 18.4038 15.8698 17.9398 16.4548 17.3547C17.0398 16.7697 17.5038 16.0752 17.8204 15.3109C18.1371 14.5465 18.3 13.7273 18.3 12.9C18.3 12.0726 18.1371 11.2534 17.8204 10.4891C17.5038 9.72472 17.0398 9.03021 16.4548 8.4452C15.8698 7.86019 15.1753 7.39614 14.4109 7.07953C13.6466 6.76293 12.8273 6.59998 12 6.59998C10.3291 6.59998 8.72671 7.26372 7.54523 8.4452C6.36375 9.62668 5.7 11.2291 5.7 12.9C5.7 14.5708 6.36375 16.1733 7.54523 17.3547C8.72671 18.5362 10.3291 19.2 12 19.2ZM11.1 8.39997H12.9V13.8H11.1V8.39997ZM8.4 2.09998H15.6V3.89998H8.4V2.09998Z" fill="#525866"/>
</svg>
