<svg width="14" height="14" viewBox="0 0 14 14" fill="none" xmlns="http://www.w3.org/2000/svg">
<path d="M5.75431 0.815038C4.87834 0.531469 3.92607 0.925907 3.50716 1.74584L3.00355 2.73158C2.94371 2.8487 2.84846 2.94396 2.73133 3.00379L1.7456 3.50741C0.925663 3.92631 0.531225 4.87858 0.814794 5.75456L1.15571 6.80768C1.19621 6.93281 1.19621 7.06756 1.15571 7.19268L0.814794 8.24581C0.531225 9.12181 0.925663 10.0741 1.7456 10.493L2.73133 10.9966C2.84846 11.0564 2.94371 11.1517 3.00355 11.2688L3.50716 12.2546C3.92607 13.0745 4.87834 13.4689 5.75431 13.1854L6.80744 12.8444C6.93256 12.8039 7.06731 12.8039 7.19244 12.8444L8.24556 13.1854C9.12156 13.4689 10.0738 13.0745 10.4928 12.2546L10.9963 11.2688C11.0562 11.1517 11.1514 11.0564 11.2686 10.9966L12.2543 10.493C13.0743 10.0741 13.4687 9.12181 13.1851 8.24581L12.8442 7.19268C12.8037 7.06756 12.8037 6.93281 12.8442 6.80768L13.1851 5.75456C13.4687 4.87858 13.0743 3.92631 12.2543 3.50741L11.2686 3.00379C11.1514 2.94396 11.0562 2.8487 10.9963 2.73158L10.4928 1.74584C10.0738 0.925907 9.12156 0.531469 8.24556 0.815038L7.19244 1.15595C7.06731 1.19645 6.93256 1.19646 6.80744 1.15595L5.75431 0.815038ZM3.72479 6.84849L4.60868 5.96456L6.37644 7.73237L9.912 4.19684L10.7959 5.08072L6.37644 9.50012L3.72479 6.84849Z" fill="#35B9E9"/>
</svg>
