<svg width="16" height="16" viewBox="0 0 16 16" fill="none" xmlns="http://www.w3.org/2000/svg">
<path d="M3.6275 12.5C3.78245 12.0609 4.0698 11.6806 4.44995 11.4116C4.8301 11.1426 5.28432 10.9982 5.75 10.9982C6.21568 10.9982 6.6699 11.1426 7.05005 11.4116C7.4302 11.6806 7.71755 12.0609 7.8725 12.5H15.5V14H7.8725C7.71755 14.4392 7.4302 14.8194 7.05005 15.0884C6.6699 15.3574 6.21568 15.5018 5.75 15.5018C5.28432 15.5018 4.8301 15.3574 4.44995 15.0884C4.0698 14.8194 3.78245 14.4392 3.6275 14H0.5V12.5H3.6275ZM8.1275 7.25001C8.28245 6.81086 8.5698 6.43058 8.94995 6.1616C9.3301 5.89262 9.78432 5.74817 10.25 5.74817C10.7157 5.74817 11.1699 5.89262 11.5501 6.1616C11.9302 6.43058 12.2175 6.81086 12.3725 7.25001H15.5V8.75001H12.3725C12.2175 9.18916 11.9302 9.56943 11.5501 9.83842C11.1699 10.1074 10.7157 10.2518 10.25 10.2518C9.78432 10.2518 9.3301 10.1074 8.94995 9.83842C8.5698 9.56943 8.28245 9.18916 8.1275 8.75001H0.5V7.25001H8.1275ZM3.6275 2.00001C3.78245 1.56086 4.0698 1.18058 4.44995 0.911599C4.8301 0.642616 5.28432 0.498169 5.75 0.498169C6.21568 0.498169 6.6699 0.642616 7.05005 0.911599C7.4302 1.18058 7.71755 1.56086 7.8725 2.00001H15.5V3.50001H7.8725C7.71755 3.93916 7.4302 4.31943 7.05005 4.58841C6.6699 4.8574 6.21568 5.00184 5.75 5.00184C5.28432 5.00184 4.8301 4.8574 4.44995 4.58841C4.0698 4.31943 3.78245 3.93916 3.6275 3.50001H0.5V2.00001H3.6275ZM5.75 3.50001C5.94891 3.50001 6.13968 3.42099 6.28033 3.28034C6.42098 3.13968 6.5 2.94892 6.5 2.75001C6.5 2.55109 6.42098 2.36033 6.28033 2.21968C6.13968 2.07902 5.94891 2.00001 5.75 2.00001C5.55109 2.00001 5.36032 2.07902 5.21967 2.21968C5.07902 2.36033 5 2.55109 5 2.75001C5 2.94892 5.07902 3.13968 5.21967 3.28034C5.36032 3.42099 5.55109 3.50001 5.75 3.50001ZM10.25 8.75001C10.4489 8.75001 10.6397 8.67099 10.7803 8.53034C10.921 8.38968 11 8.19892 11 8.00001C11 7.8011 10.921 7.61033 10.7803 7.46968C10.6397 7.32902 10.4489 7.25001 10.25 7.25001C10.0511 7.25001 9.86032 7.32902 9.71967 7.46968C9.57902 7.61033 9.5 7.8011 9.5 8.00001C9.5 8.19892 9.57902 8.38968 9.71967 8.53034C9.86032 8.67099 10.0511 8.75001 10.25 8.75001ZM5.75 14C5.94891 14 6.13968 13.921 6.28033 13.7803C6.42098 13.6397 6.5 13.4489 6.5 13.25C6.5 13.0511 6.42098 12.8603 6.28033 12.7197C6.13968 12.579 5.94891 12.5 5.75 12.5C5.55109 12.5 5.36032 12.579 5.21967 12.7197C5.07902 12.8603 5 13.0511 5 13.25C5 13.4489 5.07902 13.6397 5.21967 13.7803C5.36032 13.921 5.55109 14 5.75 14Z" fill="#525866"/>
</svg>
