<svg width="24" height="24" viewBox="0 0 24 24" fill="none" xmlns="http://www.w3.org/2000/svg">
<path d="M20.1 4.8H7.49999C7.0226 4.8 6.56477 4.98964 6.2272 5.32721C5.88964 5.66477 5.69999 6.12261 5.69999 6.6C5.69999 7.07739 5.88964 7.53523 6.2272 7.87279C6.56477 8.21036 7.0226 8.4 7.49999 8.4H20.1V20.1C20.1 20.3387 20.0052 20.5676 19.8364 20.7364C19.6676 20.9052 19.4387 21 19.2 21H7.49999C6.54521 21 5.62954 20.6207 4.95441 19.9456C4.27928 19.2705 3.89999 18.3548 3.89999 17.4V6.6C3.89999 5.64522 4.27928 4.72955 4.95441 4.05442C5.62954 3.37928 6.54521 3 7.49999 3H19.2C19.4387 3 19.6676 3.09482 19.8364 3.2636C20.0052 3.43239 20.1 3.66131 20.1 3.9V4.8ZM5.69999 17.4C5.69999 17.8774 5.88964 18.3352 6.2272 18.6728C6.56477 19.0104 7.0226 19.2 7.49999 19.2H18.3V10.2H7.49999C6.86804 10.201 6.24705 10.0349 5.69999 9.7185V17.4ZM19.2 7.5H7.49999C7.2613 7.5 7.03238 7.40518 6.8636 7.2364C6.69482 7.06761 6.59999 6.83869 6.59999 6.6C6.59999 6.3613 6.69482 6.13239 6.8636 5.9636C7.03238 5.79482 7.2613 5.7 7.49999 5.7H19.2V7.5Z" fill="#525866"/>
</svg>
