<svg width="16" height="14" viewBox="0 0 16 14" fill="none" xmlns="http://www.w3.org/2000/svg">
<path d="M3.5 3.25V1C3.5 0.801088 3.57902 0.610322 3.71967 0.46967C3.86032 0.329018 4.05109 0.25 4.25 0.25H9.0605L10.5605 1.75H14.75C14.9489 1.75 15.1397 1.82902 15.2803 1.96967C15.421 2.11032 15.5 2.30109 15.5 2.5V10C15.5 10.1989 15.421 10.3897 15.2803 10.5303C15.1397 10.671 14.9489 10.75 14.75 10.75H12.5V13C12.5 13.1989 12.421 13.3897 12.2803 13.5303C12.1397 13.671 11.9489 13.75 11.75 13.75H1.25C1.05109 13.75 0.860322 13.671 0.71967 13.5303C0.579018 13.3897 0.5 13.1989 0.5 13V4C0.5 3.80109 0.579018 3.61032 0.71967 3.46967C0.860322 3.32902 1.05109 3.25 1.25 3.25H3.5ZM3.5 4.75H2V12.25H11V10.75H3.5V4.75ZM5 1.75V9.25H14V3.25H9.9395L8.4395 1.75H5Z" fill="#525866"/>
</svg>
